<?xml version="1.0" encoding="UTF-8" standalone="no"?><!DOCTYPE svg PUBLIC "-//W3C//DTD SVG 1.1//EN" "http://www.w3.org/Graphics/SVG/1.1/DTD/svg11.dtd"><svg width="100%" height="100%" viewBox="0 0 127 127" version="1.1" xmlns="http://www.w3.org/2000/svg" xmlns:xlink="http://www.w3.org/1999/xlink" xml:space="preserve" xmlns:serif="http://www.serif.com/" style="fill-rule:evenodd;clip-rule:evenodd;stroke-linejoin:round;stroke-miterlimit:2;"><path d="M91.603,67.303c0.438,0.531 0.855,1.122 1.244,1.78c2.364,3.994 4.41,10.005 5.941,12.303c1.137,1.705 2.966,2.764 4.249,3.151c3.183,0.962 6.01,0.959 8.353,-0.192c2.373,-1.167 4.161,-3.452 5.44,-6.624c2.081,-5.162 2.744,-12.435 1.835,-21.605c-0.955,-9.631 -6.106,-19.329 -12.148,-27.215c-6.146,-8.023 -16.6,-15.651 -27.168,-18.643c-14.722,-4.169 -26.966,-2.176 -37.912,2.354c-13.186,5.456 -22.516,16.523 -27.257,25.357c-4.483,8.351 -6.211,18.763 -6.211,27.358c0,8.275 2.406,16.861 6.218,24.034c3.84,7.224 10.227,14.31 16.8,19.126c6.559,4.805 14.872,8.311 22.6,9.74c7.712,1.426 16.078,0.891 23.717,-1.181c7.723,-2.094 16.198,-6.495 22.379,-11.391l4.858,6.133c-6.957,5.509 -16.499,10.453 -25.189,12.809c-8.757,2.375 -18.348,2.957 -27.187,1.323c-8.823,-1.631 -18.313,-5.636 -25.802,-11.122c-7.474,-5.477 -14.718,-13.551 -19.084,-21.765c-4.394,-8.266 -7.134,-18.17 -7.134,-27.706c0,-9.764 2.049,-21.571 7.141,-31.058c5.412,-10.082 16.11,-22.659 31.159,-28.886c12.426,-5.142 26.324,-7.385 43.035,-2.653c12.149,3.441 24.181,12.19 31.248,21.413c6.909,9.019 12.63,20.186 13.722,31.201c2.868,28.918 -9.128,41.684 -25.676,36.682c-2.566,-0.775 -6.224,-2.892 -8.496,-6.302c-1.578,-2.368 -3.727,-8.54 -6.163,-12.656c-1.43,-2.414 -3.792,-2.6 -5.453,-2.762l-0.385,-0.035c-1.961,-0.018 -3.897,-0.167 -5.548,-0.347c-0.002,1.987 -0.866,4.367 -2.979,6.681c-2.269,2.484 -6.173,5.098 -11.757,7.024c-5.435,1.874 -12.226,3.114 -18.095,1.622c-2.679,-0.681 -6.309,-2.14 -9.372,-5.531c-2.871,-3.179 -5.344,-8.141 -5.673,-16.113c-0.304,-7.355 4.106,-19.205 14.243,-21.69c5.604,-1.374 10.596,-0.987 17.297,0.649l-1.855,7.6c-5.263,-1.284 -9.178,-1.73 -13.579,-0.651c-2.962,0.726 -4.963,2.939 -6.278,5.419c-1.471,2.776 -2.111,5.945 -2.011,8.35c0.227,5.496 1.683,9.001 3.662,11.192c1.788,1.98 3.93,2.795 5.494,3.192c4.423,1.125 9.52,-0.022 13.616,-1.435c3.413,-1.177 6.016,-2.622 7.745,-4.139c0.544,-0.478 0.99,-0.952 1.318,-1.424c0.197,-0.282 0.401,-0.508 0.401,-0.753l0,-28.562l3.508,-0.364c0,0 6.546,-0.676 11.9,-0.458c2.77,0.113 5.259,0.523 6.765,1.183c2.631,1.154 4.674,2.672 6.093,4.862c1.356,2.092 2.188,4.87 2.088,8.834c-0.127,5.033 -2.314,9.293 -5.657,11.891Zm-10.047,-4.769c1.281,-0.058 2.515,-0.22 3.58,-0.538c2.627,-0.785 4.221,-3.546 4.303,-6.782c0.049,-1.947 -0.166,-3.353 -0.832,-4.381c-0.602,-0.929 -1.554,-1.462 -2.67,-1.952c-0.873,-0.383 -2.338,-0.465 -3.942,-0.531c-2.447,-0.099 -5.17,0.009 -7.266,0.141l0,13.495c1.967,0.172 4.316,0.302 6.691,0.533l0.136,0.015Z"/></svg>